<svg width="123" height="28" viewBox="0 0 123 28" fill="none" xmlns="http://www.w3.org/2000/svg">
<path d="M120.98 1H2.08809C1.24829 1 0.782521 1.97257 1.30897 2.62688L8.2917 11.3054C8.48152 11.5414 8.76802 11.6786 9.07082 11.6786H114.365C114.677 11.6786 114.971 11.5329 115.16 11.2848L121.776 2.60622C122.277 1.94799 121.808 1 120.98 1Z" fill="#FF847C"/>
<path d="M108.055 18.1786H15.2968C14.3767 18.1786 13.9449 19.3163 14.6334 19.9268L22.3263 26.7482C22.5093 26.9104 22.7453 27 22.9898 27H101.761C102.04 27 102.306 26.8833 102.496 26.6781L108.79 19.8567C109.381 19.2161 108.927 18.1786 108.055 18.1786Z" fill="#FF847C"/>
<path d="M120.98 1H2.08809C1.24829 1 0.782521 1.97257 1.30897 2.62688L8.2917 11.3054C8.48152 11.5414 8.76802 11.6786 9.07082 11.6786H114.365C114.677 11.6786 114.971 11.5329 115.16 11.2848L121.776 2.60622C122.277 1.94799 121.808 1 120.98 1Z" stroke="#FF847C" stroke-width="2"/>
<path d="M108.055 18.1786H15.2968C14.3767 18.1786 13.9449 19.3163 14.6334 19.9268L22.3263 26.7482C22.5093 26.9104 22.7453 27 22.9898 27H101.761C102.04 27 102.306 26.8833 102.496 26.6781L108.79 19.8567C109.381 19.2161 108.927 18.1786 108.055 18.1786Z" stroke="#FF847C" stroke-width="2"/>
</svg>
