<svg width="24" height="24" viewBox="0 0 24 24" fill="none" xmlns="http://www.w3.org/2000/svg">
<g clip-path="url(#clip0)">
<path d="M22.8937 23.0625H21.8656V8.1345C21.8656 7.43967 21.3003 6.8744 20.6055 6.8744H18.3075C17.6127 6.8744 17.0474 7.43972 17.0474 8.1345V23.0625H14.4368V14.8981C14.4368 14.2032 13.8716 13.638 13.1767 13.638H10.8787C10.1839 13.638 9.61865 14.2033 9.61865 14.8981V23.0625H7.00809V18.8342C7.00809 18.1394 6.44278 17.5741 5.748 17.5741H3.44995C2.75512 17.5741 2.18986 18.1394 2.18986 18.8342V23.0625H1.10629C0.847402 23.0625 0.637543 23.2724 0.637543 23.5313C0.637543 23.7902 0.847402 24 1.10629 24H22.8937C23.1526 24 23.3624 23.7902 23.3624 23.5313C23.3624 23.2724 23.1526 23.0625 22.8937 23.0625ZM6.0705 23.0625H3.12731V18.8342C3.12731 18.6563 3.27201 18.5116 3.4499 18.5116H5.7479C5.92579 18.5116 6.0705 18.6563 6.0705 18.8342V23.0625ZM13.4993 23.0625H10.5561V14.8981C10.5561 14.7202 10.7008 14.5755 10.8787 14.5755H13.1767C13.3545 14.5755 13.4993 14.7202 13.4993 14.8981V23.0625ZM20.9281 23.0625H17.9849V8.1345C17.9849 7.95661 18.1296 7.81191 18.3075 7.81191H20.6055C20.7834 7.81191 20.9281 7.95661 20.9281 8.1345V23.0625Z" fill="#29363B" fill-opacity="0.7"/>
<path d="M21.8645 0.492938C21.871 0.365016 21.826 0.234938 21.7283 0.13725C21.6307 0.0395625 21.5006 -0.00548438 21.3727 0.001125C21.3651 0.000796875 21.3577 0 21.35 0H18.514C18.2551 0 18.0453 0.209859 18.0453 0.46875C18.0453 0.727641 18.2551 0.9375 18.514 0.9375H20.2651L15.6312 5.57147L13.8837 3.82397C13.7958 3.73608 13.6766 3.68667 13.5523 3.68667C13.428 3.68667 13.3087 3.73608 13.2208 3.82397L4.79415 12.2507C4.6111 12.4337 4.6111 12.7305 4.79415 12.9136C4.88569 13.0051 5.00565 13.0508 5.1256 13.0508C5.24555 13.0508 5.36555 13.0051 5.45705 12.9135L13.5523 4.81828L15.2998 6.56578C15.4828 6.74883 15.7796 6.74883 15.9627 6.56578L20.9281 1.60045V3.1853C20.9281 3.44419 21.138 3.65405 21.3968 3.65405C21.6557 3.65405 21.8656 3.44419 21.8656 3.1853V0.515625C21.8656 0.507984 21.8648 0.500531 21.8645 0.492938Z" fill="#29363B" fill-opacity="0.7"/>
<path d="M3.54562 14.6864C3.80451 14.6864 4.01437 14.4765 4.01437 14.2177C4.01437 13.9588 3.80451 13.7489 3.54562 13.7489C3.28674 13.7489 3.07687 13.9588 3.07687 14.2177C3.07687 14.4765 3.28674 14.6864 3.54562 14.6864Z" fill="#29363B" fill-opacity="0.7"/>
</g>
<defs>
<clipPath id="clip0">
<rect width="24" height="24" fill="white"/>
</clipPath>
</defs>
</svg>
