<svg width="24" height="24" viewBox="0 0 24 24" fill="none" xmlns="http://www.w3.org/2000/svg">
<g clip-path="url(#clip0)">
<path d="M15.0636 2.99044C12.4237 1.65647 9.24364 2.16652 7.15062 4.25958C4.71804 6.69212 4.47457 10.5708 6.58432 13.2818C6.6589 13.3776 6.77037 13.4278 6.88305 13.4278C6.96424 13.4278 7.04604 13.4018 7.11509 13.348C7.27994 13.2197 7.30957 12.9821 7.18132 12.8172C5.30543 10.4068 5.52222 6.95776 7.68555 4.79443C9.54696 2.93292 12.3748 2.47927 14.7225 3.66553C14.9089 3.75985 15.1364 3.68494 15.2307 3.49852C15.3248 3.3121 15.2501 3.08461 15.0636 2.99044Z" fill="#29363B" fill-opacity="0.7"/>
<path d="M18.0838 6.01122C17.9896 5.8248 17.7622 5.74999 17.5756 5.84411C17.3892 5.93828 17.3144 6.16572 17.4085 6.35224C18.594 8.69956 18.1401 11.5271 16.2791 13.388C14.1157 15.5513 10.6667 15.7681 8.25626 13.8923C8.09136 13.764 7.85379 13.7936 7.7255 13.9584C7.5972 14.1233 7.62687 14.3609 7.79173 14.4892C9.02661 15.4502 10.5037 15.9229 11.9761 15.9229C13.7361 15.9229 15.4895 15.2474 16.814 13.9229C18.9066 11.8304 19.4169 8.6509 18.0838 6.01122Z" fill="#29363B" fill-opacity="0.7"/>
<path d="M17.1066 4.5707C17.0129 4.46467 16.9145 4.35995 16.814 4.25954C16.7135 4.15909 16.6089 4.06065 16.5028 3.96695C16.3463 3.82857 16.1073 3.84339 15.969 3.9999C15.8306 4.15637 15.8453 4.39539 16.0018 4.53372C16.0963 4.61715 16.1896 4.7049 16.2791 4.79439C16.3685 4.88392 16.4563 4.97715 16.5398 5.07161C16.6145 5.15617 16.7187 5.19934 16.8233 5.19934C16.9123 5.19934 17.0017 5.16808 17.0736 5.10451C17.2302 4.96623 17.2449 4.72722 17.1066 4.5707Z" fill="#29363B" fill-opacity="0.7"/>
<path d="M20.9094 9.76912C21.1616 9.35536 21.1616 8.84142 20.9093 8.42774L20.4117 7.61179C20.3462 7.50426 20.3208 7.37657 20.3404 7.25226L20.4887 6.30993C20.5643 5.82969 20.367 5.35377 19.9739 5.06778L19.2028 4.50688C19.1009 4.43267 19.0284 4.32444 18.9987 4.20191L18.7741 3.27383C18.6601 2.8024 18.2964 2.43875 17.8251 2.32465L16.8969 2.10003C16.7744 2.07036 16.6661 1.99789 16.592 1.89593L16.031 1.1246C15.745 0.73151 15.2691 0.534119 14.789 0.609776L13.8463 0.758088C13.722 0.777635 13.5942 0.752323 13.4868 0.686791L12.6707 0.189072C12.257 -0.0632101 11.7431 -0.0631632 11.3293 0.189072L10.5133 0.686651C10.4059 0.752229 10.2783 0.777448 10.1538 0.757948L9.21143 0.609635C8.73134 0.534072 8.25532 0.73137 7.96938 1.12446L7.40847 1.89561C7.33427 1.99756 7.22599 2.07003 7.10341 2.0997L6.17533 2.32428C5.704 2.43828 5.34025 2.80198 5.22616 3.27336L5.00153 4.20149C4.97186 4.32402 4.89944 4.43235 4.79744 4.50645L4.02611 5.06746C3.63302 5.35335 3.43577 5.82922 3.51128 6.30946L3.65959 7.25216C3.67914 7.37652 3.65383 7.50421 3.5883 7.61165L3.09062 8.42779C2.83844 8.84151 2.83844 9.35545 3.09067 9.76912L3.58825 10.5851C3.65378 10.6927 3.67914 10.8203 3.65955 10.9447L3.51123 11.887C3.43562 12.3672 3.63292 12.8432 4.02602 13.1291L4.79716 13.69C4.89911 13.7641 4.97158 13.8725 5.00125 13.995L5.22583 14.9231C5.33983 15.3945 5.70353 15.7582 6.17491 15.8723L6.56247 15.9661L3.93963 21.8167C3.88389 21.9411 3.89931 22.0857 3.98008 22.1955C4.0608 22.3053 4.19425 22.3632 4.32963 22.347L6.44004 22.0946L7.65579 23.838C7.72694 23.9399 7.84305 23.9998 7.96591 23.9998C7.97768 23.9998 7.98959 23.9993 8.0014 23.9982C8.13705 23.9854 8.25541 23.9007 8.31115 23.7764L10.9898 17.8008L11.3292 18.0077C11.5361 18.1339 11.768 18.1969 11.9999 18.1969C12.2319 18.1969 12.4638 18.1338 12.6706 18.0077L13.0223 17.7933L15.7043 23.7764C15.7601 23.9007 15.8784 23.9854 16.0141 23.9982C16.0259 23.9993 16.0378 23.9999 16.0496 23.9999C16.1724 23.9999 16.2886 23.94 16.3597 23.838L17.5754 22.0947L19.6859 22.347C19.8211 22.3631 19.9547 22.3053 20.0354 22.1956C20.1161 22.0858 20.1316 21.9411 20.0759 21.8168L17.4516 15.9629L17.8246 15.8726C18.296 15.7586 18.6597 15.3949 18.7738 14.9236L18.9984 13.9954C19.0281 13.8729 19.1006 13.7646 19.2025 13.6905L19.9739 13.1295C20.3669 12.8436 20.5642 12.3677 20.4887 11.8875L20.3404 10.9447C20.3208 10.8204 20.3461 10.6927 20.4117 10.5853L20.9094 9.76912ZM7.89415 22.8574L6.93068 21.4758C6.8508 21.3613 6.71421 21.3 6.57555 21.3167L4.9031 21.5166L7.29274 16.1859C7.33643 16.218 7.37562 16.2564 7.40791 16.3009L7.96891 17.0723C8.02221 17.1455 8.08212 17.2119 8.14741 17.2711L6.88961 20.0769C6.80421 20.2675 6.88943 20.4913 7.08002 20.5767C7.13027 20.5993 7.18282 20.6099 7.23448 20.6099C7.37894 20.6099 7.51694 20.5267 7.5798 20.3863L8.83315 17.5905C8.95648 17.6074 9.08346 17.6072 9.21092 17.5871L10.1536 17.4388C10.21 17.4299 10.2671 17.4307 10.3226 17.4399L7.89415 22.8574ZM19.1125 21.5165L17.44 21.3167C17.3012 21.3 17.1647 21.3613 17.0849 21.4758L16.1214 22.8574L13.6919 17.4378C13.7428 17.4309 13.7948 17.4309 13.8463 17.4389L14.7886 17.5872C14.9212 17.6081 15.0533 17.6074 15.1813 17.5884L16.4356 20.3864C16.4986 20.5268 16.6365 20.61 16.781 20.61C16.8327 20.61 16.8852 20.5994 16.9354 20.5768C17.126 20.4914 17.2113 20.2676 17.1258 20.077L15.8632 17.2605C15.9241 17.204 15.9804 17.1414 16.0306 17.0724L16.5915 16.3013C16.6269 16.2526 16.6702 16.211 16.7188 16.1773L19.1125 21.5165ZM20.2635 9.37528L19.7658 10.1914C19.6072 10.4518 19.5457 10.761 19.5931 11.0623L19.7414 12.0049C19.7726 12.2032 19.6912 12.3996 19.5289 12.5176L18.7575 13.0787C18.5106 13.2583 18.3351 13.5207 18.2632 13.8174L18.0386 14.7456C17.9915 14.9401 17.8414 15.0903 17.6468 15.1374L16.7187 15.362C16.4218 15.4338 16.1594 15.6094 15.9798 15.8563L15.4189 16.6275C15.3009 16.7898 15.1045 16.8712 14.9061 16.8399L13.9638 16.6916C13.6625 16.6442 13.3532 16.7056 13.0928 16.8643L12.2768 17.3619C12.1061 17.466 11.8938 17.466 11.7231 17.3619L10.907 16.8643C10.704 16.7405 10.4713 16.676 10.2359 16.676C10.1693 16.676 10.1024 16.6811 10.0361 16.6916L9.0934 16.8399C8.89512 16.8711 8.69871 16.7896 8.58068 16.6274L8.01963 15.856C7.84001 15.6091 7.57765 15.4336 7.28088 15.3617L6.35275 15.1371C6.15818 15.09 6.00804 14.9399 5.96093 14.7453L5.73635 13.8172C5.66453 13.5204 5.48899 13.2579 5.242 13.0783L4.47091 12.5174C4.30863 12.3993 4.2272 12.2028 4.25842 12.0046L4.40674 11.0622C4.45413 10.761 4.39281 10.4517 4.23405 10.1913L3.73647 9.37523C3.63236 9.20446 3.63236 8.99226 3.73647 8.82154L4.23414 8.0054C4.39286 7.74506 4.45422 7.43577 4.40683 7.13455L4.25852 6.1919C4.22734 5.99366 4.30881 5.79721 4.47105 5.67918L5.24242 5.11813C5.48932 4.9385 5.66491 4.67614 5.73672 4.37938L5.96135 3.45125C6.00846 3.25667 6.15855 3.10653 6.35318 3.05942L7.2813 2.83484C7.57812 2.76303 7.84052 2.58744 8.0201 2.3405L8.58101 1.56936C8.69904 1.40707 8.89545 1.32556 9.09377 1.35682L10.0362 1.50514C10.3375 1.55262 10.6468 1.49121 10.9071 1.33245L11.7231 0.83487C11.8939 0.730807 12.1061 0.730807 12.2768 0.83487L13.0929 1.3325C13.3533 1.49131 13.6626 1.55267 13.9638 1.50523L14.9065 1.35692C15.1047 1.32584 15.3012 1.40721 15.4192 1.56945L15.9803 2.34078C16.1599 2.58767 16.4223 2.76326 16.719 2.83508L17.6472 3.0597C17.8417 3.10681 17.9919 3.25691 18.039 3.45153L18.2636 4.37961C18.3354 4.67642 18.5109 4.93888 18.7579 5.1185L19.5291 5.67941C19.6913 5.79744 19.7728 5.99394 19.7415 6.19218L19.5932 7.13455C19.5458 7.43582 19.6072 7.7451 19.7659 8.00549L20.2635 8.82154C20.3677 8.99231 20.3677 9.20451 20.2635 9.37528Z" fill="#29363B" fill-opacity="0.7"/>
<path d="M16.4258 7.92175C16.3425 7.66515 16.1242 7.48599 15.8563 7.45421L13.5805 7.18435L12.6206 5.10333C12.5076 4.85836 12.2698 4.70616 11.9999 4.70616C11.7302 4.70616 11.4923 4.85836 11.3793 5.10333L10.4194 7.1844L8.14358 7.45426C7.87564 7.48604 7.65739 7.6652 7.57409 7.92179C7.49075 8.17825 7.562 8.45148 7.76 8.63462L9.44258 10.1906L8.99595 12.4385C8.94341 12.7031 9.04634 12.966 9.26464 13.1246C9.38506 13.212 9.5248 13.2563 9.66542 13.2563C9.77975 13.2563 9.8946 13.2271 10.0001 13.168L11.9999 12.0487L13.9997 13.168C14.2351 13.2998 14.5169 13.2832 14.7352 13.1246C14.9535 12.966 15.0564 12.7031 15.0038 12.4385L14.5572 10.1907L16.2398 8.63467C16.4379 8.45153 16.5091 8.17834 16.4258 7.92175ZM13.8883 9.77908C13.7917 9.86837 13.7485 10.0015 13.7741 10.1305L14.2311 12.4307L12.1846 11.2852C12.1273 11.2531 12.0636 11.237 11.9999 11.237C11.9362 11.237 11.8726 11.253 11.8152 11.2852L9.76869 12.4307L10.2257 10.1305C10.2514 10.0014 10.2081 9.86837 10.1115 9.77908L8.38972 8.18673L10.7188 7.91059C10.8493 7.89512 10.9626 7.81285 11.0177 7.69346L11.9999 5.56388L12.9822 7.69346C13.0373 7.81285 13.1505 7.89512 13.2811 7.91059L15.6101 8.18673L13.8883 9.77908Z" fill="#29363B" fill-opacity="0.7"/>
</g>
<defs>
<clipPath id="clip0">
<rect width="24" height="24" fill="white"/>
</clipPath>
</defs>
</svg>
