<svg width="30" height="30" viewBox="0 0 30 30" fill="none" xmlns="http://www.w3.org/2000/svg">
<g clip-path="url(#clip0)">
<path d="M24.082 15.4021V12.5977C24.082 8.50652 21.3626 5.039 17.6367 3.90645V2.63672C17.6367 1.18283 16.4539 0 15 0C13.5461 0 12.3633 1.18283 12.3633 2.63672V3.90645C8.63731 5.039 5.91798 8.50646 5.91798 12.5977V15.4021C5.91798 18.9957 4.54817 22.4033 2.06093 24.9971C1.81718 25.2513 1.74868 25.6264 1.88684 25.9503C2.02501 26.2742 2.34317 26.4844 2.69532 26.4844H10.6939C11.1022 28.4878 12.8778 30 15 30C17.1223 30 18.8978 28.4878 19.3061 26.4844H27.3047C27.6568 26.4844 27.9749 26.2742 28.1131 25.9503C28.2513 25.6264 28.1828 25.2513 27.9391 24.9971C25.4518 22.4033 24.082 18.9957 24.082 15.4021ZM14.1211 2.63672C14.1211 2.15209 14.5154 1.75781 15 1.75781C15.4846 1.75781 15.8789 2.15209 15.8789 2.63672V3.55828C15.5896 3.53039 15.2965 3.51562 15 3.51562C14.7035 3.51562 14.4104 3.53039 14.1211 3.55828V2.63672ZM15 28.2422C13.8542 28.2422 12.8773 27.5074 12.5145 26.4844H17.4856C17.1227 27.5074 16.1458 28.2422 15 28.2422ZM4.58966 24.7266C6.59128 22.0434 7.67579 18.7964 7.67579 15.4021V12.5977C7.67579 8.55908 10.9614 5.27344 15 5.27344C19.0386 5.27344 22.3242 8.55908 22.3242 12.5977V15.4021C22.3242 18.7964 23.4087 22.0434 25.4104 24.7266H4.58966Z" fill="#2A363B"/>
<path d="M26.4258 12.5976C26.4258 13.083 26.8193 13.4766 27.3047 13.4766C27.7901 13.4766 28.1836 13.083 28.1836 12.5976C28.1836 9.07616 26.8123 5.76544 24.3222 3.27538C23.979 2.9322 23.4225 2.93214 23.0793 3.27538C22.736 3.61863 22.736 4.17509 23.0793 4.51833C25.2373 6.6764 26.4258 9.54568 26.4258 12.5976Z" fill="#2A363B"/>
<path d="M2.69537 13.4765C3.18076 13.4765 3.57428 13.083 3.57428 12.5976C3.57428 9.54573 4.7628 6.67645 6.9208 4.51839C7.26405 4.17514 7.26405 3.61868 6.9208 3.27544C6.57762 2.93219 6.0211 2.93219 5.67785 3.27544C3.1878 5.7655 1.81647 9.07616 1.81647 12.5976C1.81647 13.083 2.20998 13.4765 2.69537 13.4765Z" fill="#2A363B"/>
</g>
<defs>
<clipPath id="clip0">
<rect width="30" height="30" fill="white"/>
</clipPath>
</defs>
</svg>
