<svg width="21" height="21" viewBox="0 0 21 21" fill="none" xmlns="http://www.w3.org/2000/svg">
<path d="M16.3337 9.68058L6.98844 0.335485C6.77229 0.11917 6.48376 0 6.1761 0C5.86844 0 5.57991 0.11917 5.36377 0.335485L4.67555 1.02353C4.22773 1.47187 4.22773 2.20054 4.67555 2.6482L12.523 10.4956L4.66684 18.3518C4.4507 18.5681 4.33136 18.8565 4.33136 19.164C4.33136 19.4718 4.4507 19.7602 4.66684 19.9766L5.35506 20.6645C5.57137 20.8808 5.85974 21 6.16739 21C6.47505 21 6.76358 20.8808 6.97973 20.6645L16.3337 11.3109C16.5504 11.0939 16.6694 10.8042 16.6687 10.4962C16.6694 10.187 16.5504 9.89741 16.3337 9.68058Z" fill="#2A363B"/>
</svg>
